Coordinates
version=1
nRows=11
nColumns=42
inDegrees=yes

Units are S.I. units (second, meters, Newtons, ...)
If the header above contains a line with 'inDegrees', this indicates whether rotational values are in degrees (yes) or radians (no).

endheader
time	pelvis_tilt	pelvis_list	pelvis_rotation	pelvis_tx	pelvis_ty	pelvis_tz	hip_flexion_r	hip_adduction_r	hip_rotation_r	knee_angle_r	knee_adduction_r	knee_angle_r_beta	ankle_angle_r	subtalar_angle_r	mtp_angle_r	hip_flexion_l	hip_adduction_l	hip_rotation_l	knee_angle_l	knee_adduction_l	knee_angle_l_beta	ankle_angle_l	subtalar_angle_l	mtp_angle_l	lumbar_extension	lumbar_bending	lumbar_rotation	arm_flex_r	arm_add_r	arm_rot_r	elbow_flex_r	pro_sup_r	wrist_flex_r	wrist_dev_r	arm_flex_l	arm_add_l	arm_rot_l	elbow_flex_l	pro_sup_l	wrist_flex_l	wrist_dev_l
      2.05000000	      7.12973830	      6.36589963	     -3.10901364	     -0.49173447	      0.98008081	      0.31963435	    -19.45582807	    -10.27185144	    -17.06163856	     25.88761818	      1.39382243	      0.45182417	      6.25285244	      8.02861978	     -7.59824015	      7.68056505	      5.88420260	    -13.69860242	      3.48645104	     -1.10263823	      0.06085005	     -8.37373874	     11.35668234	     -7.59824015	    -21.46811916	    -12.47456220	      4.41588051	     24.60273923	    -17.48928732	     25.41681126	     39.21303216	     90.00000001	      0.00000000	      0.00000000	    -13.27996910	    -12.52640962	      4.82445792	     37.45096435	     90.00000001	      0.00000000	      0.00000000
      2.06000000	      7.20795747	      6.46429749	     -3.02765702	     -0.48244272	      0.98191608	      0.31752372	    -18.78634478	    -10.99918342	    -17.52773582	     28.25821765	      1.43723616	      0.49319894	      4.09709032	      7.41988289	     -7.59664192	      6.85743738	      6.17973833	    -13.78553744	      3.22112886	     -1.04666591	      0.05621930	     -7.94805369	     11.82403609	     -7.59664192	    -21.57871775	    -12.60038710	      4.15576593	     23.86822931	    -17.41537958	     25.27822089	     39.18795271	     90.00000001	      0.00000000	      0.00000000	    -12.74621796	    -12.75057782	      5.18832533	     37.28107232	     90.00000001	      0.00000000	      0.00000000
      2.07000000	      7.12834259	      6.64651965	     -2.84229166	     -0.47342592	      0.98343008	      0.31510088	    -17.78527604	    -11.87716285	    -18.03161087	     30.95988306	      1.53195687	      0.54035190	      1.88926101	      6.39885364	     -7.59382221	      6.31704368	      6.63494594	    -13.81758233	      3.08421693	     -1.13626360	      0.05382974	     -7.59126343	     12.39309397	     -7.59382221	    -21.55850621	    -12.76003674	      3.80150176	     23.06614237	    -17.33695424	     24.97644414	     39.22735487	     90.00000001	      0.00000000	      0.00000000	    -12.17617317	    -13.08061645	      5.89810817	     37.15908427	     90.00000001	      0.00000000	      0.00000000
      2.08000000	      7.16080568	      6.71732917	     -2.70141511	     -0.46466987	      0.98508027	      0.31292677	    -16.77911628	    -12.62157872	    -18.41908876	     33.72879314	      1.53066712	      0.58867849	     -0.51180451	      5.18177793	     -7.59094856	      5.64801710	      6.91001931	    -13.71867455	      2.97270076	     -1.11928930	      0.05188342	     -7.08439432	     12.82309370	     -7.59094856	    -21.69045989	    -12.82095415	      3.52524155	     22.31430173	    -17.27999094	     24.74986635	     39.20964562	     90.00000001	      0.00000000	      0.00000000	    -11.50970265	    -13.41251857	      6.50297224	     37.08752979	     90.00000001	      0.00000000	      0.00000000
      2.09000000	      7.19897233	      6.74033974	     -2.52624480	     -0.45619441	      0.98669462	      0.31078779	    -15.66810022	    -13.29140664	    -18.66988237	     36.57250265	      1.52583280	      0.63831059	     -2.93445182	      3.62436095	     -7.58783861	      4.98260760	      7.14499307	    -13.57222508	      2.84972666	     -1.13023496	      0.04973711	     -6.54300097	     13.11929898	     -7.58783861	    -21.85869804	    -12.82551009	      3.22488742	     21.57394796	    -17.20927135	     24.54914999	     39.18356479	     90.00000001	      0.00000000	      0.00000000	    -10.78792047	    -13.75163465	      7.11996891	     37.05492363	     90.00000001	      0.00000000	      0.00000000
      2.10000000	      7.37141328	      6.70377801	     -2.41353471	     -0.44787899	      0.98839084	      0.30886586	    -14.59333604	    -13.86599794	    -19.00100193	     39.40579655	      1.28194386	      0.68776089	     -5.32081271	      2.35716581	     -7.58609429	      4.12368300	      7.28804690	    -13.40271117	      2.64734893	     -1.08249072	      0.04620496	     -5.93085269	     13.41093143	     -7.58609429	    -22.18883344	    -12.78106698	      2.96231186	     20.89610039	    -17.16077851	     24.46822871	     39.13202738	     90.00000001	      0.00000000	      0.00000000	    -10.00580717	    -14.05209549	      7.50183047	     37.03525421	     90.00000001	      0.00000000	      0.00000000
      2.11000000	      7.33979143	      6.70501913	     -2.21738879	     -0.44006140	      0.98967999	      0.30672624	    -13.21518229	    -14.51069313	    -18.57550475	     42.37078877	      1.63684676	      0.73950977	     -7.73274312	     -0.68384334	     -7.58062917	      3.59397362	      7.48028866	    -13.09658295	      2.57265048	     -1.07431037	      0.04490122	     -5.48084863	     13.41496077	     -7.58062917	    -22.34377320	    -12.72657176	      2.67951198	     20.17778709	    -17.08842685	     24.15616517	     39.07915136	     90.00000001	      0.00000000	      0.00000000	     -9.14318855	    -14.49998929	      8.52008863	     37.06469791	     90.00000001	      0.00000000	      0.00000000
      2.12000000	      7.38101775	      6.70015301	     -1.98834259	     -0.43238291	      0.99088890	      0.30462919	    -11.81369215	    -15.09577068	    -18.91843266	     45.30774983	      1.33216710	      0.79076941	     -9.81879312	     -2.31282384	     -7.57823988	      2.97964167	      7.69786464	    -12.84273686	      2.45575086	     -1.14783037	      0.04286094	     -5.05556304	     13.72448395	     -7.57823988	    -22.60200200	    -12.65666424	      2.31100933	     19.50860006	    -17.05045850	     24.12994488	     39.06401465	     90.00000001	      0.00000000	      0.00000000	     -8.23551505	    -14.84688846	      8.96190227	     37.08797322	     90.00000001	      0.00000000	      0.00000000
      2.13000000	      7.51731688	      6.65024952	     -1.87255524	     -0.42485574	      0.99210454	      0.30287351	    -10.44136997	    -15.59135326	    -19.06434687	     48.13437737	      0.98454180	      0.84010337	    -11.47615210	     -3.82557900	     -7.57659279	      2.21572044	      7.81567505	    -12.70636485	      2.24592885	     -1.15105720	      0.03919885	     -4.51972400	     14.01027816	     -7.57659279	    -22.94064020	    -12.57240506	      2.05548653	     18.88666802	    -16.99435372	     24.10580896	     38.96874638	     90.00000001	      0.00000000	      0.00000000	     -7.27773261	    -15.20216817	      9.41329583	     37.11734229	     90.00000001	      0.00000000	      0.00000000
      2.14000000	      7.41118034	      6.69264810	     -1.67994301	     -0.41783308	      0.99284468	      0.30090533	     -8.72222462	    -16.19788603	    -18.60959399	     51.03312553	      1.16716732	      0.89069607	    -13.08416865	     -6.60741574	     -7.57339112	      1.84736127	      8.02997875	    -12.54301115	      2.22034861	     -1.16351961	      0.03875239	     -4.12783198	     14.18407428	     -7.57339112	    -23.06833177	    -12.55316191	      1.75629643	     18.22660430	    -16.91456359	     23.94646746	     38.88108379	     90.00000001	      0.00000000	      0.00000000	     -6.23227662	    -15.68573870	     10.38700080	     37.18621948	     90.00000001	      0.00000000	      0.00000000
      2.15000000	      7.48435972	      6.65133384	     -1.57643690	     -0.41081511	      0.99376809	      0.29926464	     -7.18478838	    -16.61851061	    -18.28540796	     53.65673068	      1.08785736	      0.93648662	    -14.27367582	     -8.73237169	     -7.56934168	      1.21119715	      8.12539305	    -12.50443519	      2.06844120	     -1.14122088	      0.03610111	     -3.69254806	     14.48943708	     -7.56934168	    -23.36760694	    -12.46924800	      1.53316693	     17.61271183	    -16.84921892	     23.87731198	     38.77737591	     90.00000001	      0.00000000	      0.00000000	     -5.13330354	    -16.10187153	     11.04673055	     37.21004945	     90.00000001	      0.00000000	      0.00000000
